%TF.GenerationSoftware,KiCad,Pcbnew,10.0.1*%
%TF.CreationDate,2026-05-19T09:31:12-04:00*%
%TF.ProjectId,chord-qpl,63686f72-642d-4717-906c-2e6b69636164,rev?*%
%TF.SameCoordinates,Original*%
%TF.FileFunction,Copper,L2,Bot*%
%TF.FilePolarity,Positive*%
%FSLAX46Y46*%
G04 Gerber Fmt 4.6, Leading zero omitted, Abs format (unit mm)*
G04 Created by KiCad (PCBNEW 10.0.1) date 2026-05-19 09:31:12*
%MOMM*%
%LPD*%
G01*
G04 APERTURE LIST*
%TA.AperFunction,SMDPad,CuDef*%
%ADD10R,5.080000X1.500000*%
%TD*%
%TA.AperFunction,ViaPad*%
%ADD11C,0.200000*%
%TD*%
%TA.AperFunction,ViaPad*%
%ADD12C,0.350000*%
%TD*%
G04 APERTURE END LIST*
D10*
%TO.P,J2,2,Ext_2*%
%TO.N,GND*%
X156637500Y-119250000D03*
X156637500Y-127750000D03*
%TD*%
%TO.P,J1,2,Ext_2*%
%TO.N,GND*%
X83862500Y-129066609D03*
X83862500Y-120566609D03*
%TD*%
D11*
%TO.N,GND*%
X109792952Y-123804031D03*
X110173716Y-123469221D03*
X109773257Y-124690291D03*
X108808219Y-124289832D03*
X109786387Y-124316092D03*
X110803945Y-124808459D03*
X109182417Y-124801894D03*
X111204088Y-123311879D03*
X111125000Y-122345100D03*
X110175000Y-122345100D03*
X110127761Y-124296397D03*
X110797380Y-123291969D03*
X109766693Y-123469221D03*
X110206540Y-124664031D03*
X109182417Y-124302962D03*
X111197839Y-124808459D03*
D12*
X110080547Y-120682402D03*
D11*
X108814784Y-124801894D03*
X110167151Y-123876244D03*
X113045295Y-124862539D03*
%TD*%
%TA.AperFunction,Conductor*%
%TO.N,GND*%
G36*
X130943039Y-100520185D02*
G01*
X130988794Y-100572989D01*
X131000000Y-100624500D01*
X131000000Y-104876000D01*
X130980315Y-104943039D01*
X130927511Y-104988794D01*
X130876000Y-105000000D01*
X100624500Y-105000000D01*
X100557461Y-104980315D01*
X100511706Y-104927511D01*
X100500500Y-104876000D01*
X100500500Y-100624500D01*
X100520185Y-100557461D01*
X100572989Y-100511706D01*
X100624500Y-100500500D01*
X130876000Y-100500500D01*
X130943039Y-100520185D01*
G37*
%TD.AperFunction*%
%TD*%
M02*
