%TF.GenerationSoftware,KiCad,Pcbnew,10.0.1*%
%TF.CreationDate,2026-05-19T09:31:12-04:00*%
%TF.ProjectId,chord-qpl,63686f72-642d-4717-906c-2e6b69636164,rev?*%
%TF.SameCoordinates,Original*%
%TF.FileFunction,Soldermask,Top*%
%TF.FilePolarity,Negative*%
%FSLAX46Y46*%
G04 Gerber Fmt 4.6, Leading zero omitted, Abs format (unit mm)*
G04 Created by KiCad (PCBNEW 10.0.1) date 2026-05-19 09:31:12*
%MOMM*%
%LPD*%
G01*
G04 APERTURE LIST*
G04 Aperture macros list*
%AMRoundRect*
0 Rectangle with rounded corners*
0 $1 Rounding radius*
0 $2 $3 $4 $5 $6 $7 $8 $9 X,Y pos of 4 corners*
0 Add a 4 corners polygon primitive as box body*
4,1,4,$2,$3,$4,$5,$6,$7,$8,$9,$2,$3,0*
0 Add four circle primitives for the rounded corners*
1,1,$1+$1,$2,$3*
1,1,$1+$1,$4,$5*
1,1,$1+$1,$6,$7*
1,1,$1+$1,$8,$9*
0 Add four rect primitives between the rounded corners*
20,1,$1+$1,$2,$3,$4,$5,0*
20,1,$1+$1,$4,$5,$6,$7,0*
20,1,$1+$1,$6,$7,$8,$9,0*
20,1,$1+$1,$8,$9,$2,$3,0*%
G04 Aperture macros list end*
%ADD10C,0.500000*%
%ADD11C,0.010000*%
%ADD12RoundRect,0.135000X0.135000X0.185000X-0.135000X0.185000X-0.135000X-0.185000X0.135000X-0.185000X0*%
%ADD13RoundRect,0.135000X-0.135000X-0.185000X0.135000X-0.185000X0.135000X0.185000X-0.135000X0.185000X0*%
%ADD14C,3.000000*%
%ADD15C,5.504000*%
%ADD16RoundRect,0.135000X0.185000X-0.135000X0.185000X0.135000X-0.185000X0.135000X-0.185000X-0.135000X0*%
%ADD17RoundRect,0.102000X0.500000X-0.400000X0.500000X0.400000X-0.500000X0.400000X-0.500000X-0.400000X0*%
%ADD18RoundRect,0.102000X0.400000X-0.500000X0.400000X0.500000X-0.400000X0.500000X-0.400000X-0.500000X0*%
%ADD19RoundRect,0.218750X-0.381250X0.218750X-0.381250X-0.218750X0.381250X-0.218750X0.381250X0.218750X0*%
%ADD20RoundRect,0.102000X-0.500000X0.400000X-0.500000X-0.400000X0.500000X-0.400000X0.500000X0.400000X0*%
%ADD21RoundRect,0.102000X-0.400000X0.500000X-0.400000X-0.500000X0.400000X-0.500000X0.400000X0.500000X0*%
%ADD22R,5.080000X1.500000*%
%ADD23RoundRect,0.102000X0.400000X0.500000X-0.400000X0.500000X-0.400000X-0.500000X0.400000X-0.500000X0*%
%ADD24RoundRect,0.102000X0.500000X0.400000X-0.500000X0.400000X-0.500000X-0.400000X0.500000X-0.400000X0*%
%ADD25RoundRect,0.140000X-0.170000X0.140000X-0.170000X-0.140000X0.170000X-0.140000X0.170000X0.140000X0*%
%ADD26RoundRect,0.140000X-0.140000X-0.170000X0.140000X-0.170000X0.140000X0.170000X-0.140000X0.170000X0*%
%ADD27RoundRect,0.062500X-0.287500X-0.062500X0.287500X-0.062500X0.287500X0.062500X-0.287500X0.062500X0*%
%ADD28R,0.800000X1.600000*%
%ADD29RoundRect,0.102000X-0.400000X-0.500000X0.400000X-0.500000X0.400000X0.500000X-0.400000X0.500000X0*%
%ADD30RoundRect,0.102000X-0.500000X-0.400000X0.500000X-0.400000X0.500000X0.400000X-0.500000X0.400000X0*%
G04 APERTURE END LIST*
D10*
X103935600Y-123805100D02*
G75*
G02*
X103435600Y-123805100I-250000J0D01*
G01*
X103435600Y-123805100D02*
G75*
G02*
X103935600Y-123805100I250000J0D01*
G01*
D11*
%TO.C,J13*%
X138550000Y-116250000D02*
X137350000Y-116250000D01*
X137350000Y-115300000D01*
X137200000Y-115150000D01*
X136250000Y-115150000D01*
X136250000Y-113950000D01*
X138550000Y-113950000D01*
X138550000Y-116250000D01*
G36*
X138550000Y-116250000D02*
G01*
X137350000Y-116250000D01*
X137350000Y-115300000D01*
X137200000Y-115150000D01*
X136250000Y-115150000D01*
X136250000Y-113950000D01*
X138550000Y-113950000D01*
X138550000Y-116250000D01*
G37*
%TO.C,J12*%
X108550000Y-133600000D02*
X108700000Y-133750000D01*
X109650000Y-133750000D01*
X109650000Y-134950000D01*
X107350000Y-134950000D01*
X107350000Y-132650000D01*
X108550000Y-132650000D01*
X108550000Y-133600000D01*
G36*
X108550000Y-133600000D02*
G01*
X108700000Y-133750000D01*
X109650000Y-133750000D01*
X109650000Y-134950000D01*
X107350000Y-134950000D01*
X107350000Y-132650000D01*
X108550000Y-132650000D01*
X108550000Y-133600000D01*
G37*
%TO.C,J14*%
X109700000Y-115100000D02*
X108750000Y-115100000D01*
X108600000Y-115250000D01*
X108600000Y-116200000D01*
X107400000Y-116200000D01*
X107400000Y-113900000D01*
X109700000Y-113900000D01*
X109700000Y-115100000D01*
G36*
X109700000Y-115100000D02*
G01*
X108750000Y-115100000D01*
X108600000Y-115250000D01*
X108600000Y-116200000D01*
X107400000Y-116200000D01*
X107400000Y-113900000D01*
X109700000Y-113900000D01*
X109700000Y-115100000D01*
G37*
%TO.C,J11*%
X138450000Y-135050000D02*
X136150000Y-135050000D01*
X136150000Y-133850000D01*
X137100000Y-133850000D01*
X137250000Y-133700000D01*
X137250000Y-132750000D01*
X138450000Y-132750000D01*
X138450000Y-135050000D01*
G36*
X138450000Y-135050000D02*
G01*
X136150000Y-135050000D01*
X136150000Y-133850000D01*
X137100000Y-133850000D01*
X137250000Y-133700000D01*
X137250000Y-132750000D01*
X138450000Y-132750000D01*
X138450000Y-135050000D01*
G37*
%TD*%
D12*
%TO.C,R2*%
X113033045Y-125060677D03*
X112013045Y-125060677D03*
%TD*%
D13*
%TO.C,R1*%
X126500000Y-116500000D03*
X127520000Y-116500000D03*
%TD*%
D14*
%TO.C,MP2*%
X143103800Y-109009600D03*
D15*
X143103800Y-109009600D03*
%TD*%
D16*
%TO.C,R4*%
X109175000Y-122375100D03*
X109175000Y-121355100D03*
%TD*%
D14*
%TO.C,MP4*%
X146101000Y-142004200D03*
D15*
X146101000Y-142004200D03*
%TD*%
D17*
%TO.C,J13*%
X137950000Y-118550000D03*
D18*
X133950000Y-114550000D03*
%TD*%
D19*
%TO.C,L1*%
X112450494Y-121386579D03*
X112450494Y-123511579D03*
%TD*%
D20*
%TO.C,J12*%
X107950000Y-130350000D03*
D21*
X111950000Y-134350000D03*
%TD*%
D22*
%TO.C,J2*%
X156637500Y-123500000D03*
X156637500Y-119250000D03*
X156637500Y-127750000D03*
%TD*%
D14*
%TO.C,MP1*%
X111099800Y-109009600D03*
D15*
X111099800Y-109009600D03*
%TD*%
D23*
%TO.C,J14*%
X112000000Y-114500000D03*
D24*
X108000000Y-118500000D03*
%TD*%
D22*
%TO.C,J1*%
X83862500Y-124816609D03*
X83862500Y-129066609D03*
X83862500Y-120566609D03*
%TD*%
D25*
%TO.C,C4*%
X110175000Y-121385100D03*
X110175000Y-122345100D03*
%TD*%
D14*
%TO.C,MP3*%
X111099800Y-139007000D03*
D15*
X111099800Y-139007000D03*
%TD*%
D26*
%TO.C,C5*%
X109120547Y-120682402D03*
X110080547Y-120682402D03*
%TD*%
%TO.C,C1*%
X106020000Y-123805100D03*
X106980000Y-123805100D03*
%TD*%
D25*
%TO.C,C3*%
X111125000Y-121385100D03*
X111125000Y-122345100D03*
%TD*%
D27*
%TO.C,U1*%
X109000000Y-123305100D03*
X109000000Y-123805100D03*
X109000000Y-124305100D03*
X109000000Y-124805100D03*
X111000000Y-124805100D03*
X111000000Y-124305100D03*
X111000000Y-123805100D03*
X111000000Y-123305100D03*
D28*
X110000000Y-124055100D03*
%TD*%
D29*
%TO.C,J11*%
X133850000Y-134450000D03*
D30*
X137850000Y-130450000D03*
%TD*%
M02*
